<?xml version="1.0" encoding="UTF-8"?>
<svg id="Capa_1" xmlns="http://www.w3.org/2000/svg" version="1.1" viewBox="0 0 24 24">
  <!-- Generator: Adobe Illustrator 29.1.0, SVG Export Plug-In . SVG Version: 2.1.0 Build 142)  -->
  <defs>
    <style>
      .st0 {
        fill: #d5232d;
      }

      .st1 {
        fill: #29336d;
      }

      .st2 {
        display: none;
      }
    </style>
  </defs>
  <g class="st2">
    <path class="st1" d="M.3,9.5c0-.2.2-.6.3-.8.3-.4,1.7-1.8,2.1-2.1s.8-.4,1.2-.2C6.5.6,14-1.4,19.2,2.4s.8.5.8.8c0,.4-.4.4-.6.2s-.6-.5-1-.7C13.5-.4,6.9,1.4,4.4,6.7l.6.7c.2-.4.4-.7.6-1.1s.6-1,.8-1c.3,0,.5.2.4.5s-.5.7-.7,1-.4.8-.6,1.2c.5.9,2,1.8,1,2.9l-1.3,1.2c1.4,2.3,3.3,4.3,5.5,5.9s1,.7,1.1.7.9-.8,1-1,.1-.2.2-.2c1.1-1,2,.5,2.9,1,4.9-1.8,6.9-7.7,4.1-12.1s-7.8-4.9-11.6-2.2-.7.6-.8.7c-.4.1-.6-.3-.3-.6,1-1,3-1.8,4.3-2.1,6.3-1,11.5,4.5,10.2,10.7s-2.6,5.1-5.2,6.2c.2,0,.5.5.6.5s0,0,.1,0c.1,0,.7-.4.9-.5,4.1-2.5,5.7-7.8,3.8-12.2-.4-.9-1-1.8-1.7-2.6,0-.2.2-.5.4-.4s.7.7.8.9c3.8,5.3,1.8,12.7-4,15.4.1.4,0,.9-.2,1.2s-1.6,1.7-2,2-.6.3-.8.4h-1c-.4,0-.7-.1-1.1-.2-3.5-.8-7.4-4.2-9.5-7s-1-1.4-1.2-1.8.2-.7.5-.5c1.2,2,2.7,3.9,4.5,5.4s4.5,3.3,6.8,3.4.9,0,1.3-.3,1.5-1.4,1.8-1.8.3-.8-.1-1.2c-.7-.7-1.8-1.2-2.6-1.9-.2-.1-.3,0-.4,0-.4.3-1.2,1.3-1.6,1.5s-.4,0-.6,0c-.3-.1-.9-.6-1.2-.8-1.8-1.3-3.6-3-4.9-4.9s-.9-1.2-.9-1.5,0-.2,0-.2c.1-.4,1.2-1.2,1.5-1.6s.1-.3,0-.4c-.7-.7-1.3-1.9-2-2.6s-.6-.4-1-.2-1.7,1.6-1.9,1.9c-.5.7-.2,2.1,0,2.8s.4,1,.5,1.2-.5.6-.7.2-.4-1-.5-1.5l-.3-1.3c0-.3,0-.7,0-1Z"/>
    <path class="st0" d="M10.9,12c-.2,0-.3-.3-.2-.5.5-.8.9-1.9,1.5-2.6s.8-.5,1,0,0,2.3,0,2.4c.2,0,.3,0,.4.1.2.4,0,.6-.4.6,0,.3.2,1.1-.3,1.1s-.4-.2-.4-.3v-.8h-1.7ZM12.6,11.3v-1.7l-1,1.7h1Z"/>
    <path class="st0" d="M9,12.5h1.5c.2,0,.4.6-.1.7s-1.5,0-1.9,0-.5-.3-.3-.7c.3-.6,1.7-2.1,1.7-2.6s-.7-.8-1.1-.4-.2.8-.6.6,0-1,.3-1.2c.5-.4,1.3-.3,1.8.2,1.1,1.1-.6,2.6-1.2,3.5Z"/>
    <path class="st0" d="M19,9.2h-1.7c-.2,0-.4-.6,0-.7s1.9,0,2.2,0,.3.4.2.7c-.4,1.1-1,2.4-1.5,3.4s-.1.4-.4.4-.3-.3-.3-.5l1.5-3.4Z"/>
    <path class="st1" d="M16,8.6c.2,0,.4,0,.4.3l-1.6,4.1c-.2.4-.7.1-.6-.3.6-1.2.9-2.7,1.5-3.8s.1-.2.3-.3Z"/>
  </g>
  <g class="st2">
    <path class="st1" d="M23.1,13.5c-.2,1-.2,2.1-.4,3.1s-1.5,1.3-2.5,1.2c-.1.9-.9,1.6-1.8,1.8s-2.3-.6-2.2-1.8h-7.8s-.1,0-.1,0c-.3,1.4-1.9,2.3-3.2,1.5s-.9-.9-.8-1.5c-1,0-2.2,0-2.2-1.3s.2-1.5.2-1.7c.2-.5.8-.3.9.2h12s1.1-8.7,1.1-8.7c0-.2-.1-.4-.4-.4H4.7c-.6.1-.4.8-.6,1.2s-.9.2-.8-.3c0-1,.6-1.7,1.6-1.8h11.2c.6,0,1.1.5,1.2,1.2s-.1.8,0,1.1h3.2c.3,0,1,.4,1.2.7.4.5,1,2.4,1.2,3.1s.4,1.1.5,1.6,0,.6,0,.8ZM21,9.1c0-.5-.4-.8-.9-.9h-3.2s-.9,6.9-.9,6.9h6c0-.8.3-1.5.2-2.3h-3.1c-.3,0-.7-.3-.8-.6s.1-1.8.2-2.2.2-.6.5-.8.3-.1.4-.1h1.7ZM19.2,11.9h2.7l-.6-1.8h-1.9s-.3,1.8-.3,1.8ZM5.1,16h-2.1c0,.4-.2.9.3.9s.7,0,.9,0,.2-.3.3-.4l.5-.5ZM15,16h-7.3c0,.1.2.2.3.4s.2.6.4.6h6.4s.1,0,.1,0v-.9ZM17.1,16h-1.1s0,0,0,.1c0,.3,0,.6,0,.8.1,0,.5,0,.6,0s.2-.3.2-.4c.2-.2.3-.3.5-.5ZM21.9,16h-2.1l.4.5.2.5c.8,0,1.6.2,1.6-.9ZM6.3,16.5c-1.5.2-1.6,2.5,0,2.3s1.5-2.5,0-2.3ZM18.3,16.5c-1.5.2-1.6,2.5,0,2.3s1.5-2.5,0-2.3Z"/>
    <path class="st0" d="M2.1,8.2h3.8c.5,0,.6.8,0,.9h-3.9c-.5,0-.4-.8,0-.9Z"/>
    <path class="st0" d="M1.2,12.6h3.8c.5,0,.6.8,0,.9H1.2c-.5,0-.4-.8,0-.9Z"/>
    <path class="st0" d="M3,10.5c.3,0,1.8,0,2.2,0,.6,0,.6.8,0,.9s-1.8,0-2.1,0c-.6,0-.6-.8,0-.9Z"/>
  </g>
  <g>
    <path class="st1" d="M11.1,15.4s0,0,0,0c.3,0,.6,0,.9,0-.3,0-.6,0-.9,0ZM11.1,15.4s0,0,0,0c.3,0,.6,0,.9,0-.3,0-.6,0-.9,0ZM11.1,15.4s0,0,0,0c.3,0,.6,0,.9,0-.3,0-.6,0-.9,0ZM14.1,21.6c.3,0,.6-.1.9-.2,0,0,.1,0,.2,0-.4,0-.7.2-1.1.2ZM13.8,20.1c.2,0,.3,0,.5,0-.2,0-.3,0-.5,0ZM11,20.2c.3,0,.7,0,1,0-.6,0-1.2,0-1.8-.1.2,0,.5,0,.7,0ZM8.6,21.4c0,0,.1,0,.2,0-.2,0-.5-.2-.6-.2.1,0,.3,0,.4.1ZM13,4.3c-.3,0-.6,0-.9,0,.5,0,1.1,0,1.7.1-.3,0-.5,0-.7,0ZM7.6,9.6c-1.3-.8-1.6-1.7-.2-2.7.9-.6,2.1-.9,3.2-1,0,0,0,0,.1,0-.9.1-1.8.3-2.6.7-1.7.7-2.5,1.9-.5,3.1,1.1.6,2.5.9,4,1-1.5,0-2.9-.4-4-1ZM11.9,12.2c-.6,0-1.3,0-1.9-.2.6.1,1.3.2,1.9.2ZM6.8,5.5c1-.6,2.3-.9,3.4-1.1-1.2.2-2.4.5-3.4,1.1ZM11.1,15.4s0,0,0,0c.3,0,.6,0,.9,0-.3,0-.6,0-.9,0Z"/>
    <path class="st1" d="M17.2,5.5c-1-.6-2.3-.9-3.4-1.1,0,0,0,0-.1,0-.6,0-1.1-.1-1.7-.1h0c-.5,0-1.1,0-1.7.1,0,0,0,0-.1,0-1.1.2-2.3.5-3.4,1.1-.9.6-1.7,1.4-1.9,2.5v10.2c.2.9.7,1.5,1.3,2,.6.5,1.3.8,2,1.1h0c.1,0,.4.1.6.2.4,0,.7.2,1.1.2,0,0,.1,0,.2,0,0,0,.1,0,.2,0,.1,0,.3,0,.4,0,.2,0,.4,0,.5,0,0,0,0,0,.1,0,0,0,.1,0,.2,0,0,0,.1,0,.2,0,0,0,.1,0,.2,0h0c0,0,.1,0,.2,0,0,0,.1,0,.2,0,0,0,.1,0,.2,0,0,0,0,0,.1,0,.1,0,.2,0,.4,0,0,0,.1,0,.2,0,.1,0,.3,0,.4,0,0,0,.1,0,.2,0,0,0,.1,0,.2,0,.4,0,.7-.1,1.1-.2.2,0,.5-.2.6-.2h0c.7-.2,1.4-.6,2-1.1.7-.5,1.2-1.2,1.3-2V8c-.3-1.1-1-1.9-1.9-2.5ZM8.1,6.6c.8-.4,1.7-.6,2.6-.7,0,0,0,0,.1,0,0,0,.2,0,.3,0,0,0,0,0,0,0,0,0,.1,0,.2,0,0,0,0,0,0,0,0,0,.1,0,.2,0,0,0,0,0,.1,0,.2,0,.3,0,.5,0,0,0,0,0,.1,0,0,0,.1,0,.2,0,0,0,0,0,0,0,0,0,0,0,0,0,0,0,.1,0,.2,0,0,0,0,0,0,0,0,0,.2,0,.3,0,0,0,.2,0,.2,0,.9.1,1.8.3,2.5.7,1.7.7,2.5,1.9.5,3.1-1.1.6-2.5.9-4,1-.3,0-.6,0-.9,0-1.5,0-2.9-.4-4-1-2-1.1-1.2-2.3.5-3.1ZM14.4,16.7c-.9.2-1.8.3-2.4.3h0s0,0,0,0c-.7,0-1.6,0-2.4-.3-1.1-.2-2.2-.7-2.8-1.3,0,0-.4-.5-.4-.6v-.8c.9.6,1.9,1,3,1.2.6.1,1.1.2,1.7.2,0,0,0,0,0,0,.3,0,.6,0,.9,0,.3,0,.6,0,.9,0,0,0,0,0,0,0,.6,0,1.1-.1,1.7-.2,1.1-.2,2.1-.6,3-1.2v.8c0,0-.3.5-.4.6-.6.6-1.7,1.1-2.8,1.3ZM15.9,13.1c-1.1.5-2.4.7-3.2.7-.2,0-.4,0-.7,0-.2,0-.5,0-.7,0-.8,0-2.2-.3-3.2-.7-.4-.2-.7-.4-1-.6-.2-.2-.4-.3-.5-.5,0,0-.2-.3-.2-.4v-.8l.8.4c.9.4,1.7.6,2.7.8,0,0,0,0,0,0,.6,0,1.3.1,1.9.2,0,0,0,0,.1,0s0,0,.1,0c.6,0,1.3,0,1.9-.2,0,0,0,0,0,0,.9-.2,1.8-.4,2.7-.8l.8-.4v.8s-.1.3-.2.4c-.1.2-.3.4-.5.5-.3.2-.6.4-1,.6ZM14.3,20c-.2,0-.3,0-.5,0-.2,0-.5,0-.7.1-.3,0-.7,0-1,0-.4,0-.7,0-1,0-.2,0-.5,0-.7,0-.2,0-.3,0-.5,0-.6-.1-1.2-.3-1.8-.6-.2-.1-.4-.2-.6-.4-.2-.2-.9-.7-.9-1v-.8c.3.2.7.4,1,.5.5.2,1,.4,1.6.5,1,.2,1.9.3,2.9.3,0,0,0,0,0,0,1,0,2-.1,2.9-.3.5-.1,1.1-.3,1.6-.5.3-.2.7-.4,1-.5v.8c0,.3-.7.9-.9,1-.2.1-.4.3-.6.4-.5.2-1.1.4-1.8.6Z"/>
    <path class="st0" d="M12.5,10c-.3,0-.2-.2-.3-.4-.3,0-.6,0-.8,0s-.5,0-.6-.1c-.2-.1,0-.4.3-.4s.2,0,.3,0c.2,0,.5,0,.8,0l-.2-.9c-.2,0-.4,0-.6,0-.4,0-.9,0-1-.4-.2-.5.2-.9.9-1.2s.2,0,.2,0c0-.1-.1-.3,0-.4s.3-.1.4,0,0,.3,0,.3c.4,0,.8-.1,1.2,0s0,.4-.3.4-.1,0-.2,0c-.2,0-.4,0-.6,0l.2.8c.1,0,.3,0,.4,0,.7,0,1.1,0,1.2.6s-.5.9-1.2,1.1c0,.1.2.3,0,.5h0ZM11.5,7.1c-.3,0-.6.3-.6.5,0,.3.4.3.8.3l-.2-.8ZM12.5,9.2c.3,0,.6-.3.6-.5,0-.3-.4-.4-.8-.3l.2.8Z"/>
  </g>
</svg>