<?xml version="1.0" encoding="UTF-8"?>
<svg id="Capa_1" xmlns="http://www.w3.org/2000/svg" version="1.1" viewBox="0 0 24 24">
  <!-- Generator: Adobe Illustrator 29.1.0, SVG Export Plug-In . SVG Version: 2.1.0 Build 142)  -->
  <defs>
    <style>
      .st0 {
        fill: #d5232d;
      }

      .st1 {
        fill: #29336d;
      }
    </style>
  </defs>
  <path class="st1" d="M.3,9.5c0-.2.2-.6.3-.8.3-.4,1.7-1.8,2.1-2.1s.8-.4,1.2-.2C6.5.6,14-1.4,19.2,2.4s.8.5.8.8c0,.4-.4.4-.6.2s-.6-.5-1-.7C13.5-.4,6.9,1.4,4.4,6.7l.6.7c.2-.4.4-.7.6-1.1s.6-1,.8-1c.3,0,.5.2.4.5s-.5.7-.7,1-.4.8-.6,1.2c.5.9,2,1.8,1,2.9l-1.3,1.2c1.4,2.3,3.3,4.3,5.5,5.9s1,.7,1.1.7.9-.8,1-1,.1-.2.2-.2c1.1-1,2,.5,2.9,1,4.9-1.8,6.9-7.7,4.1-12.1s-7.8-4.9-11.6-2.2-.7.6-.8.7c-.4.1-.6-.3-.3-.6,1-1,3-1.8,4.3-2.1,6.3-1,11.5,4.5,10.2,10.7s-2.6,5.1-5.2,6.2c.2,0,.5.5.6.5s0,0,.1,0c.1,0,.7-.4.9-.5,4.1-2.5,5.7-7.8,3.8-12.2-.4-.9-1-1.8-1.7-2.6,0-.2.2-.5.4-.4s.7.7.8.9c3.8,5.3,1.8,12.7-4,15.4.1.4,0,.9-.2,1.2s-1.6,1.7-2,2-.6.3-.8.4h-1c-.4,0-.7-.1-1.1-.2-3.5-.8-7.4-4.2-9.5-7s-1-1.4-1.2-1.8.2-.7.5-.5c1.2,2,2.7,3.9,4.5,5.4s4.5,3.3,6.8,3.4.9,0,1.3-.3,1.5-1.4,1.8-1.8.3-.8-.1-1.2c-.7-.7-1.8-1.2-2.6-1.9-.2-.1-.3,0-.4,0-.4.3-1.2,1.3-1.6,1.5s-.4,0-.6,0c-.3-.1-.9-.6-1.2-.8-1.8-1.3-3.6-3-4.9-4.9s-.9-1.2-.9-1.5,0-.2,0-.2c.1-.4,1.2-1.2,1.5-1.6s.1-.3,0-.4c-.7-.7-1.3-1.9-2-2.6s-.6-.4-1-.2-1.7,1.6-1.9,1.9c-.5.7-.2,2.1,0,2.8s.4,1,.5,1.2-.5.6-.7.2-.4-1-.5-1.5l-.3-1.3c0-.3,0-.7,0-1Z"/>
  <path class="st0" d="M10.9,12c-.2,0-.3-.3-.2-.5.5-.8.9-1.9,1.5-2.6s.8-.5,1,0,0,2.3,0,2.4c.2,0,.3,0,.4.1.2.4,0,.6-.4.6,0,.3.2,1.1-.3,1.1s-.4-.2-.4-.3v-.8h-1.7ZM12.6,11.3v-1.7l-1,1.7h1Z"/>
  <path class="st0" d="M9,12.5h1.5c.2,0,.4.6-.1.7s-1.5,0-1.9,0-.5-.3-.3-.7c.3-.6,1.7-2.1,1.7-2.6s-.7-.8-1.1-.4-.2.8-.6.6,0-1,.3-1.2c.5-.4,1.3-.3,1.8.2,1.1,1.1-.6,2.6-1.2,3.5Z"/>
  <path class="st0" d="M19,9.2h-1.7c-.2,0-.4-.6,0-.7s1.9,0,2.2,0,.3.4.2.7c-.4,1.1-1,2.4-1.5,3.4s-.1.4-.4.4-.3-.3-.3-.5l1.5-3.4Z"/>
  <path class="st1" d="M16,8.6c.2,0,.4,0,.4.3l-1.6,4.1c-.2.4-.7.1-.6-.3.6-1.2.9-2.7,1.5-3.8s.1-.2.3-.3Z"/>
</svg>