<?xml version="1.0" encoding="UTF-8"?>
<svg xmlns="http://www.w3.org/2000/svg" version="1.1" viewBox="0 0 1080 1080">
  <!-- Generator: Adobe Illustrator 29.1.0, SVG Export Plug-In . SVG Version: 2.1.0 Build 142)  -->
  <defs>
    <style>
      .st0 {
        fill: #fff;
      }
    </style>
  </defs>
  <g id="Capa_1">
    <path class="st0" d="M262.3,642.7c-.2-41.3-.4-82.6-.6-123.9,0-12.3-.3-24.6-.4-36.9,0-4.7,0-4.3-4.1-4.2-18.6.2-37.2.4-55.8.6-2.3,0-4.6,0-6.9,0-1.9,0-2.4-.6-2.4-2.5.2-5,.3-10,.3-15,.2-28.3-.5-56.6-1-84.9q-.1-5.8,5.5-5.8c33.9,0,67.8,0,101.7-.2,39.5-.4,78.9-1.1,118.4-1.7,8.9-.1,17.7-.4,26.6-.6,3,0,3.1,0,3,3.1-.6,14.9-1.3,29.7-1.7,44.6-.6,19.4-.5,38.9-.1,58.3,0,.4,0,.9,0,1.3,0,3.3,0,3.4-3.2,3.4-8.4,0-16.9,0-25.3,0-12.2-.1-24.3-.4-36.5-.6-3.7,0-3.7,0-3.7,3.8,0,42.2,0,84.3.3,126.5.1,26.9.5,53.7.8,80.6.4,28.9.8,57.7,1.2,86.6,0,2.3-.4,3.9-2.4,5.4-3.4,2.5-5.1,6.5-6.7,10.3-1,2.4-2.5,3.9-4.9,5-6.2,2.8-12.4,5.8-18.6,8.8-2.4,1.2-4.8,1.5-7.4,1.6-24.2.4-48.3.8-72.5,1.2-3.9,0-4,.1-4-4,.2-22.9.5-45.7.6-68.6.1-30.7,0-61.5,0-92.2,0,0-.2,0-.2,0Z"/>
  </g>
  <g id="Capa_2">
    <path class="st0" d="M469.1,790.1c-.8-1.6-.4-3.2-.4-4.7,0-35.3,0-70.6,0-105.9,0-26,0-52-.2-78-.2-35.9-.5-71.7-.9-107.6-.2-24.9-.5-49.7-.9-74.6-.2-14.7-.4-29.4-.6-44.2,0-1,0-2,0-3,0-1.2.4-1.9,1.7-1.8,1,0,2,0,3,0,29.3,0,58.6-.1,88-.2,7,0,14-.3,21-.4,3.7,0,3.8,0,3.8,3.6,0,16.6,0,33.2.1,49.7.1,28.4,0,56.9.5,85.3.5,33.7.5,67.5.7,101.2.3,41.6.5,83.2.9,124.8.2,22.2.6,44.3.8,66.4,0,3.6,0,3.7-3.7,3.7-23.5,0-46.9,0-70.4,0-2,0-3.4-.5-4.7-2.1-9.2-11.1-21.3-14.8-35.3-12.6-1.1.2-2.2.3-3.4.5Z"/>
  </g>
  <g id="Capa_3">
    <path class="st0" d="M723.2,797.5c-.3-.7-.4-.9-.5-1.2-3.6-15-17.3-18.2-27.5-16.4-7.5,1.3-14,4.8-20,9.3-2.7,2-2.4,2.5-5.7-.1-15-12-26-27.2-34.3-44.4-9.3-19-15-39.2-18.7-59.9-5.9-32.9-7.5-66.1-7.1-99.5.2-16,.7-32,2-48,2.3-27.6,5.7-55.1,14.5-81.6,5.6-16.9,12.9-33,23.6-47.3,19.2-25.6,44.4-41.1,76.1-45.9,25.2-3.8,50.2-3.3,74.9,2.6,33.1,8,57.7,27.3,74.2,57,9.8,17.6,15.8,36.6,19.8,56.3,3.8,18.7,5.6,37.6,7.1,56.5,1.5,19,2,38,2,57,0,19.4-.9,38.8-2.8,58.2-1.9,19.6-4.7,39.1-9.6,58.3-4,15.8-9.4,31.1-17.1,45.6-16.5,30.9-41.8,50-76.1,57.3-4.5,1-9,1.6-13.5,2.5-2.7.6-4.5,0-5.9-2.7-1.4-2.8-3.4-5.2-5.3-7.8-11.2-15.4-32.7-16.3-45.5-8.6-1.5.9-2.9,1.8-4.6,2.8ZM775.9,587.8c-.2-16.4-.3-35.4-.7-54.4-.3-19.4-.9-38.9-3.4-58.2-.8-5.9-1.8-11.9-4.3-17.4-1.8-4-4.5-7-8.9-7.9-5.6-1.2-10.9,1.5-13.7,7.1-2.3,4.5-3.2,9.5-3.9,14.4-2.2,14.3-2.8,28.7-3.1,43.1-.7,33.7-.9,67.4-.6,101.2.2,21.7.5,43.4,2,65.1.7,10.1,1.5,20.2,3.4,30.2.8,4.2,1.7,8.4,3.9,12.2,2.5,4.3,6.2,6.7,11.2,6.5,4.9-.1,7.7-3.2,9.7-7.3,1.3-2.6,2-5.3,2.6-8.1,2.8-12.5,3.6-25.2,4.2-37.9,1.4-28.7,1.3-57.4,1.6-88.8Z"/>
  </g>
  <g id="Capa_4">
    <path class="st0" d="M641.2,806.9c-7.6,3.3-15.1,6.7-22.7,10-19,8.2-38.1,16-58.2,21.3-12.8,3.4-25.6,5.8-38.9,4.8-3.9-.3-7.7-.9-11.3-2.1-5.9-1.8-10.7-5.2-14.1-10.5-3.2-5.1-6.2-10.3-7.9-16.1-.7-2.5-1.7-4.8-2.9-7.1-1.8-3.4-4.5-5-8.4-4.7-5,.4-9.4,2.3-13.5,4.9-5.1,3.3-9.4,7.5-13.7,11.7-5.3,5.2-10.4,10.6-15.4,16.1-3.5,3.9-8.2,3.6-11.3-.5-1.1-1.5-1.6-3-.7-4.8.7-1.4,1.4-2.8,2.1-4.2,4.4-8.3,8.7-16.7,11.9-25.6,1.3-3.5,2.3-7.1,2.8-10.7.8-5.5-1.7-7.8-7.1-7.1-5.8.8-10.8,3.6-15.3,7.2-5.5,4.3-10.4,9.4-15,14.6-13.1,15-24.1,31.6-34,48.8-.5.9-.9,1.8-1.5,2.6-1.4,1.9-3.4,2.6-5.6,2-2-.5-2.8-1.8-2.9-4.7,0-3.2.7-6.2,1.5-9.3,3-11,6.8-21.8,10.7-32.5.2-.7.4-1.4.6-2,.2-.3-.7-1-.9-.6-6.6,3.1-13.2,6.2-19.8,9.2-20,9.1-40.6,16.9-62.2,21.5-11.1,2.4-22.3,3.8-33.6,3.6-6.7-.1-13.4-.9-19.7-3.5-8.6-3.5-14.6-9.3-16.7-18.7,0-.4-.2-.8-.4-1.2-.1-.2-.4-.4-.8-.8-2.5,2.2-5,4.5-7.6,6.8-5,4.5-10.2,8.7-16.2,11.9-4.2,2.3-8.6,3.7-13.5,3.2-5.9-.5-9.9-3.4-11.9-9-1.9-5.5-1.6-11,.2-16.4,1.4-3.9,3.3-7.6,5.5-11.1.8-1.2,1.5-2.4,2.1-3.4-.8-1.1-1.7-.8-2.4-.7-11.5.7-22.9,0-34.3-1.1-20.2-2-40.5-3.8-60.8-2.9-14.7.6-29.3,2.7-43.8,5.5-9.4,1.8-18.7,3.9-28,6.3-1.1.3-2.2.6-3.4.6-1.2,0-2.2-.7-2.6-1.9-.4-1.3.2-2.3,1.3-2.9.7-.4,1.6-.6,2.4-.8,37.6-10.3,75.7-15.9,114.8-13,12.1.9,24.3,1.5,36.4,2.1,9.6.4,19.1,0,28.5-2.5,2.2-.6,4.2-1.5,6.1-3,6.6-5.2,14-8.1,22.6-7.6,8.8.5,14.8,7.1,14.4,15.9,0,1.5-.4,2.5-2,2.8-1.7.3-3.2,0-3.9-1.8-.2-.5-.2-1.1-.3-1.7-.4-3.4-2.5-5.2-5.7-6.1-3.8-1-7.6-.4-10.8,1.5-13.4,8-22.6,19.4-26.6,34.7-.6,2.3-.3,4.6.3,6.8.9,3.7,3.4,5.2,7,4.3,4.4-1,8.2-3.4,11.7-6,7.7-5.7,14.7-12.3,21.3-19.3,1.6-1.8,3.4-2.5,5.6-2.4,3.3.2,4.9,1.8,5,5.2,0,2.3.3,4.6.7,6.8,1.6,8.2,6.4,13.5,14.3,16,7.8,2.5,15.8,2,23.8,1.3,26.3-2.4,50.9-11.1,75.1-21.3,9.7-4.1,19.2-8.8,28.7-13.4,2.5-1.2,4.1-2.8,5.1-5.4,1-2.7,2.3-5.2,3.9-7.6,2.4-3.9,6.9-5.3,11.3-3.7,3.5,1.2,4.7,3.7,3.3,7.1-.6,1.6-1.6,3-2.4,4.5-4.4,8-9.1,15.8-12.5,24.4-.2.4-.7.9-.1,1.4.6.5.9-.2,1.2-.6,5.1-6.2,9.5-12.9,14.7-18.9,5.4-6.3,11.1-12.3,17.8-17.3,5.4-4.1,11.2-7.3,18.1-8.4,2.9-.4,5.7-.2,8.5.8,5.8,2,8,6.6,8.4,12.3.5,8-1.1,15.6-3.8,23.1-.4,1.2-1.2,2.2-1.2,3.8,1.3-.2,1.9-1.2,2.6-1.9,5.1-4.9,10.4-9.4,16.5-13,7.6-4.5,15.5-6.3,24.2-4.2,6.9,1.7,12.2,5.5,16,11.4,2.6,4.1,5.1,8.3,7.1,12.7,1.8,4.1,4.1,7.8,7.5,10.9,3.4,3.1,7.3,4.9,12,4.8,10.8-.2,21.2-2.6,31.5-5.6,25.8-7.5,50.5-18,75-29.1,4.7-2.1,9.3-4.5,13.8-6.8,2.6-1.3,5.1-1.7,7.8-.7,3.9,1.3,5.1,4,3.4,7.7-.5,1-1.1,2-1.7,3-4.3,7.6-8.5,15.2-12.3,23-.7,1.5-1.4,3.1-2.4,5.4,2.1-1.1,2.8-2.5,3.6-3.6,6.3-8.5,12.7-16.9,20.1-24.5,5.4-5.6,11.1-10.7,17.9-14.5,5.3-3,10.9-5,17.2-4.1,6.4.9,10.2,4.7,11.2,11.1,1,6.5-.7,12.5-2.9,18.4-.4,1.1-1.7,2.7-.7,3.4,1.6,1.1,2.3-1.1,3.2-2,2.9-3,5.6-6.1,8.4-9.1,2.4-2.7,5.2-4.9,8.1-6.9,7.5-5,15.7-5.7,24.2-3.2,4,1.1,7.1,3.5,9.8,6.6,4.4,5,7.9,10.5,10.6,16.5,1.8,3.9,4,7.6,7,10.7,3.8,3.9,8.4,5.6,13.9,5.5,12.8-.4,25.2-2.9,37.4-6.7,19.3-6,37.7-14.1,56.1-22.2,5.5-2.4,10.9-5,16.4-7.4,1.8-.8,3.1-1.9,3.9-3.7,1.3-2.9,3.2-5.4,5.2-7.9,2.6-3.3,8-4,11.5-1.7,1.7,1.1,2.1,2.6,1.4,4.4-.4,1-1.2,2-1.7,2.9-4.7,7.9-7.2,16.4-7,25.7.3,10,7,17.6,17,18.8,6.7.8,13.4,0,20.1-1.3,21.8-3.8,42.5-11.2,63.1-18.9,18.2-6.8,36-14.6,53.7-22.5,1.3-.6,2.6-1.2,4-1.5,1.1-.2,2.3.2,2.7,1.5.4,1.2.2,2.3-.9,3-.7.5-1.5.8-2.3,1.2-29.3,13.5-59,26.1-89.9,35.4-11.8,3.5-23.7,6.5-36,7.8-9.4,1-18.8,1.3-28.1-1.3-12.9-3.6-19.5-13.3-18.2-27.6.2-2.4.7-4.8,1-7.2.2-.3-.6-1.1-.9-.8-11,4.9-21.8,9.9-32.9,14.5-17.5,7.4-35.3,13.9-53.9,18-11.4,2.5-22.8,4-34.5,2.2-4-.6-7.8-1.6-11.4-3.5-3.2-1.6-6-3.9-8-6.9-3.7-5.4-6.9-11.2-9-17.5-.9-2.7-2-5.4-3.3-7.9-2.2-4.1-4.6-5.1-9.2-4.2-3.4.7-6.4,2.3-9.2,4.4-4.1,3-7.5,6.6-10.9,10.3-7.5,8.4-14.4,17.4-21.1,26.5-1.9,2.6-4.2,4.3-7.6,3.8-4.3-.6-6.5-4.6-4.5-8.5,4.9-9.8,9.8-19.7,13.6-30.1,1.3-3.5,2.4-7,2.9-10.7.7-4.7-1.1-6.7-5.9-6.5-4.4.1-8.3,1.9-12,4.1-5.5,3.3-10,7.7-14.3,12.2-15.7,16.3-28.5,34.6-39.4,54.3-.8,1.4-1.4,2.9-2.7,3.8-1.5,1-3.1,1.6-4.8.7-1.6-.8-2.1-2.2-2.2-3.9-.2-3.2.6-6.3,1.4-9.3,4.2-15.1,9.5-29.9,15.3-44.5.4-1.1.8-2.1,1.2-3.2.2-.4-.5-.7-.6-.5Z"/>
  </g>
  <g id="Capa_5">
    <path class="st0" d="M931.9,754.2c5.6-.1,10.9,6.8,9.5,12.4-1.2,4.8-4.2,8.4-8.7,10.6-4.7,2.2-8.4.6-9.5-4.4-1-4.4-.7-8.8,1.2-13,1.5-3.2,4-5.1,7.4-5.6Z"/>
  </g>
  <g id="Capa_6">
    <path class="st0" d="M484.9,311.3c23.5-33.9,46.9-67.3,69.4-101.8,21.9,16.5,43.9,32.2,66.4,47.3-.6,1.8-1.8,2.6-2.8,3.6-22.9,24.8-45.8,49.5-68.7,74.3-3.1,3.4-6,6.9-9,10.4-2.2,2.5-2.2,2.6-5,.4-12.8-9.7-25.6-19.2-39.3-27.6-3.5-2.2-7.1-4.3-11-6.6Z"/>
  </g>
</svg>