<svg xmlns="http://www.w3.org/2000/svg" width="24" height="24" viewBox="0 0 24 24" fill="none"><g id="package_2"><mask id="mask0_1479_55596" style="mask-type:alpha" maskUnits="userSpaceOnUse" x="0" y="0" width="24" height="24"><rect id="Bounding box" width="24" height="24" fill="#D9D9D9"></rect></mask><g mask="url(#mask0_1479_55596)"><path id="package_2_2" d="M11.25 19.5693V12.4308L5 8.81151V15.777C5 15.8282 5.01283 15.8763 5.0385 15.9213C5.06417 15.9661 5.10258 16.0045 5.15375 16.0365L11.25 19.5693ZM12.75 19.5693L18.8462 16.0365C18.8974 16.0045 18.9358 15.9661 18.9615 15.9213C18.9872 15.8763 19 15.8282 19 15.777V8.81151L12.75 12.4308V19.5693ZM11.0963 21.2058L4.404 17.3538C4.11933 17.1898 3.8975 16.9706 3.7385 16.6963C3.5795 16.4218 3.5 16.1204 3.5 15.7923V8.20775C3.5 7.87959 3.5795 7.57826 3.7385 7.30376C3.8975 7.02942 4.11933 6.81025 4.404 6.64625L11.0963 2.79426C11.3808 2.63009 11.682 2.548 12 2.548C12.318 2.548 12.6193 2.63009 12.9038 2.79426L19.596 6.64625C19.8807 6.81025 20.1025 7.02942 20.2615 7.30376C20.4205 7.57826 20.5 7.87959 20.5 8.20775V15.7923C20.5 16.1204 20.4205 16.4218 20.2615 16.6963C20.1025 16.9706 19.8807 17.1898 19.596 17.3538L12.9038 21.2058C12.6193 21.3699 12.318 21.452 12 21.452C11.682 21.452 11.3808 21.3699 11.0963 21.2058ZM15.8558 8.9L18.175 7.56926L12.1538 4.08651C12.1026 4.05451 12.0513 4.0385 12 4.0385C11.9487 4.0385 11.8974 4.05451 11.8463 4.08651L9.675 5.33651L15.8558 8.9ZM12 11.1385L14.325 9.79225L8.15 6.223L5.825 7.56926L12 11.1385Z" fill="#0063FD"></path></g></g></svg>